<svg width="186" height="190" viewBox="0 0 186 190" fill="none" xmlns="http://www.w3.org/2000/svg">
<path d="M180.44 38.8329C184.596 40.3326 186.749 44.9174 185.25 49.0734L136.372 184.525C134.873 188.68 130.288 190.834 126.132 189.334L56.5251 164.217C52.3691 162.717 50.2157 158.132 51.7154 153.976L100.593 18.5251C102.092 14.3691 106.677 12.2157 110.833 13.7154L180.44 38.8329Z" fill="#FF453A"/>
<path d="M78.1173 1.10255C82.3802 -0.0586594 86.7774 2.4558 87.9386 6.71875L125.785 145.656C126.946 149.919 124.431 154.317 120.168 155.478L48.7699 174.926C44.507 176.088 40.1098 173.573 38.9486 169.31L1.10255 30.3725C-0.0586593 26.1096 2.4558 21.7124 6.71875 20.5512L78.1173 1.10255Z" fill="#FFD60A"/>
</svg>
